<svg width="16" height="12" viewBox="0 0 16 12" fill="none" xmlns="http://www.w3.org/2000/svg">
<path fill-rule="evenodd" clip-rule="evenodd" d="M14.2081 4.63531L13.8569 3.75719L13.2341 2.2C12.6994 0.863438 11.4241 0 9.98438 0H6.01562C4.57625 0 3.30063 0.863438 2.76594 2.2L2.14313 3.75719L1.79188 4.63531C1.03812 4.92188 0.5 5.64563 0.5 6.5V8C0.5 8.50375 0.6925 8.95844 1 9.31031V11C1 11.5522 1.44781 12 2 12H3C3.55219 12 4 11.5522 4 11V10H12V11C12 11.5522 12.4478 12 13 12H14C14.5522 12 15 11.5522 15 11V9.31031C15.3075 8.95875 15.5 8.50406 15.5 8V6.5C15.5 5.64563 14.9619 4.92188 14.2081 4.63531ZM4.62281 2.94281C4.85063 2.37344 5.40219 2 6.01562 2H9.98438C10.5978 2 11.1494 2.37344 11.3772 2.94281L12 4.5H4L4.62281 2.94281ZM3 7.99375C2.4 7.99375 2 7.595 2 6.99687C2 6.39875 2.4 6 3 6C3.6 6 4.5 6.89719 4.5 7.49531C4.5 8.09344 3.6 7.99375 3 7.99375ZM13 7.99375C12.4 7.99375 11.5 8.09344 11.5 7.49531C11.5 6.89719 12.4 6 13 6C13.6 6 14 6.39875 14 6.99687C14 7.595 13.6 7.99375 13 7.99375Z" fill="#00C0FE"/>
</svg>
