<svg width="34" height="34" viewBox="0 0 34 34" fill="none" xmlns="http://www.w3.org/2000/svg">
<path fill-rule="evenodd" clip-rule="evenodd" d="M17 0.208496C7.72397 0.208496 0.208344 7.72412 0.208344 17.0002C0.208344 26.2762 7.72397 33.7918 17 33.7918C26.2761 33.7918 33.7917 26.2762 33.7917 17.0002C33.7917 7.72412 26.2761 0.208496 17 0.208496ZM20.8662 23.9132L14.8943 19.5731C14.6844 19.4174 14.5625 19.1736 14.5625 18.9163V7.521C14.5625 7.07412 14.9281 6.7085 15.375 6.7085H18.625C19.0719 6.7085 19.4375 7.07412 19.4375 7.521V16.8444L23.737 19.9726C24.1026 20.2366 24.1771 20.7444 23.913 21.1101L22.0037 23.7371C21.7396 24.096 21.2318 24.1772 20.8662 23.9132Z" fill="#FECE2F"/>
</svg>
