<svg width="26" height="36" viewBox="0 0 26 36" fill="none" xmlns="http://www.w3.org/2000/svg">
<path fill-rule="evenodd" clip-rule="evenodd" d="M6.59026 34.9923C-2.20329 26.1987 -2.19022 11.9544 6.59026 3.17392C6.97607 2.78812 7.57386 2.72488 8.02995 3.00993L12.4186 5.753C12.8962 6.05148 13.0915 6.64913 12.8823 7.17203L10.688 12.6578C10.4955 13.1392 10.0076 13.4352 9.4917 13.3836L5.7129 13.0058C4.28757 16.9505 4.3173 21.2981 5.7129 25.1604L9.49177 24.7826C10.0077 24.731 10.4955 25.0269 10.6881 25.5083L12.8824 30.9942C13.0915 31.5171 12.8962 32.1147 12.4187 32.4132L8.03001 35.1563C7.57044 35.4435 6.97348 35.3755 6.59026 34.9923ZM16.7325 7.13105C17.5336 8.4884 17.5336 10.1785 16.7325 11.5358C16.465 11.989 15.845 12.0747 15.4651 11.7106L15.0606 11.3229C14.7958 11.0691 14.736 10.6714 14.9075 10.3472C15.2425 9.71286 15.2425 8.954 14.9075 8.31967C14.736 7.99548 14.7958 7.59776 15.0606 7.34399L15.4651 6.95629C15.845 6.59216 16.465 6.67788 16.7325 7.13105ZM22.9472 0.956694C27.0192 5.80488 27.016 12.8654 22.9472 17.7096C22.6443 18.0703 22.0989 18.0987 21.7588 17.7728L21.3663 17.3965C21.0575 17.1006 21.0293 16.6159 21.3033 16.2876C24.6675 12.2563 24.6647 6.40667 21.3033 2.37877C21.0293 2.05039 21.0574 1.56573 21.3663 1.26978L21.7588 0.893522C22.0989 0.567642 22.6443 0.596012 22.9472 0.956694ZM19.8346 3.99964C22.2754 7.13603 22.2794 11.5254 19.8346 14.6668C19.5373 15.0488 18.9749 15.0901 18.6256 14.7551L18.2316 14.3774C17.9337 14.0917 17.8932 13.6261 18.1446 13.2987C19.9413 10.9584 19.9412 7.70789 18.1446 5.36776C17.8932 5.04032 17.9337 4.57482 18.2316 4.2891L18.6256 3.91135C18.9749 3.5764 19.5373 3.6177 19.8346 3.99964Z" fill="#FECE2F"/>
</svg>
