<svg width="16" height="16" viewBox="0 0 16 16" fill="none" xmlns="http://www.w3.org/2000/svg">
<path fill-rule="evenodd" clip-rule="evenodd" d="M8 0.25C3.71969 0.25 0.25 3.71969 0.25 8C0.25 12.2803 3.71969 15.75 8 15.75C12.2803 15.75 15.75 12.2803 15.75 8C15.75 3.71969 12.2803 0.25 8 0.25ZM8 2.25C10.8291 2.25 13.1819 4.30531 13.6572 7H10.7228C10.3763 6.40469 9.73875 6 9.00031 6H7.00031C6.26188 6 5.62406 6.40469 5.27781 7H2.34344C2.81813 4.30531 5.17094 2.25 8 2.25ZM2.34281 9H5.5L7 11V13.6572C4.63094 13.2391 2.76094 11.3691 2.34281 9ZM9 13.6572V11L10.5 9H13.6572C13.2391 11.3691 11.3691 13.2391 9 13.6572Z" fill="#FECE2F"/>
</svg>
