<svg width="70" height="70" viewBox="0 0 70 70" fill="none" xmlns="http://www.w3.org/2000/svg">
<g clip-path="url(#clip0)">
<path d="M34.986 68.5519C53.501 68.5519 68.5104 53.5302 68.5104 34.9999C68.5104 16.4697 53.501 1.44791 34.986 1.44791C16.4709 1.44791 1.46152 16.4697 1.46152 34.9999C1.46152 53.5302 16.4709 68.5519 34.986 68.5519Z" fill="url(#paint0_linear)" stroke="black" stroke-width="1.25436"/>
<path d="M61.1682 34.8448C61.1699 49.6623 49.2846 61.6751 34.6228 61.6751C19.961 61.6751 8.07574 49.6623 8.07742 34.8448C8.07574 20.0272 19.961 8.01434 34.6228 8.01434C49.2846 8.01434 61.1699 20.0271 61.1682 34.8448Z" fill="white"/>
<path d="M34.9732 58.9537C48.1311 58.9537 58.7976 48.2409 58.7976 35.026C58.7976 21.8111 48.1311 11.0983 34.9732 11.0983C21.8154 11.0983 11.1489 21.8111 11.1489 35.026C11.1489 48.2409 21.8154 58.9537 34.9732 58.9537Z" fill="url(#paint1_radial)"/>
<path opacity="0.65" d="M36.1509 7.04794C20.2528 7.04794 7.34708 19.959 7.34708 35.8637C7.34708 51.7684 20.2528 64.675 36.1509 64.675C52.0492 64.675 64.9505 51.7685 64.9505 35.8637C64.9505 19.9588 52.0491 7.04794 36.1509 7.04794ZM35.9232 11.0394C38.3798 11.0214 40.8355 11.3589 43.1888 12.0558L39.5319 20.1306L35.9014 28.0431L32.332 20.091L28.6621 12.1653C31.0089 11.4315 33.4666 11.0572 35.9232 11.0394ZM48.4704 14.3209C50.9214 15.7478 53.4958 17.6796 56.0382 21.0593C52.3616 29.8089 48.3677 39.1844 44.6428 47.9648L39.7202 36.6917H32.008L26.9585 47.772C23.081 39.0655 19.3365 30.3871 15.9441 21.4754C18.3332 18.0979 20.7566 16.2717 23.1878 14.6581C26.0935 21.3168 29.0016 27.9738 31.9074 34.6324H39.7071C42.6328 27.9078 45.5432 21.029 48.4704 14.3209ZM59.6162 27.8372C59.9866 28.987 60.6276 31.0999 60.8687 34.3828C60.9875 35.9979 60.9247 38.1647 60.5403 40.2669C59.89 43.8226 58.3937 47.4662 56.0249 50.6286C55.5326 51.2858 54.9994 51.9212 54.4263 52.5433C52.2593 54.8966 49.4623 57.0361 46.0484 58.5587C47.0924 56.6994 48.0477 54.8093 48.9082 52.9289C50.1196 50.2814 51.3345 47.6373 52.4555 44.9593C52.724 44.318 53.0229 43.6882 53.3095 43.0534C54.3275 40.799 55.295 38.4734 56.2306 36.1878C57.2391 33.7244 58.7145 30.3618 59.6162 27.8372ZM12.4797 28.4506C13.3814 30.9753 14.3136 33.5578 15.3221 36.0215C16.2575 38.307 17.2383 40.6021 18.2563 42.8563C20.6048 48.0569 23.0629 53.1951 25.697 58.3267C21.2071 56.1645 18.2062 53.3395 15.9614 50.2082C12.4539 45.3154 11.3232 39.9341 11.3717 35.6534C11.41 32.2754 12.0987 29.567 12.4797 28.4506ZM35.8092 43.509L43.2763 59.5883C41.3112 60.2481 39.2128 60.5279 37.0749 60.5828C36.7349 60.5915 36.3961 60.5934 36.0546 60.5915C33.1974 60.5756 30.7634 60.1946 28.535 59.4305L35.8092 43.509Z" fill="black"/>
<path opacity="0.5" d="M36.9934 6.79965C21.0951 6.79965 8.18961 19.7106 8.18961 35.6154C8.18961 51.5203 21.0952 64.4268 36.9934 64.4268C52.8917 64.4268 65.793 51.5203 65.793 35.6154C65.793 19.7106 52.8917 6.79965 36.9934 6.79965ZM36.7657 10.7911C39.2221 10.7732 41.678 11.1107 44.0312 11.8076L40.3744 19.8822L36.7438 27.7948L33.1745 19.8428L29.5044 11.9171C31.8514 11.1833 34.3092 10.8089 36.7657 10.7911ZM49.3129 14.0727C51.764 15.4998 54.3383 17.4313 56.8807 20.8111C53.2041 29.5608 49.2102 38.9362 45.4852 47.7167L40.5626 36.4436H32.8504L27.8009 47.5238C23.9234 38.8174 20.1788 30.1389 16.7864 21.2274C19.1756 17.8499 21.5989 16.0236 24.0302 14.4101C26.9359 21.0688 29.844 27.7257 32.7497 34.3844H40.5496C43.4755 27.6596 46.3857 20.7807 49.3129 14.0727ZM60.4588 27.5889C60.8292 28.7387 61.4701 30.8516 61.7113 34.1347C61.83 35.7498 61.7672 37.9164 61.3828 40.0187C60.7325 43.5746 59.2363 47.2181 56.8675 50.3805C56.3751 51.0378 55.8419 51.673 55.269 52.2951C53.1017 54.6484 50.305 56.7878 46.891 58.3106C47.935 56.4512 48.8903 54.561 49.7508 52.6806C50.9622 50.0332 52.1772 47.389 53.2983 44.711C53.5668 44.0697 53.8656 43.4399 54.1523 42.8051C55.1703 40.5508 56.138 38.2251 57.0735 35.9396C58.0817 33.4761 59.5571 30.1135 60.4588 27.5889ZM13.3223 28.2023C14.2241 30.7269 15.1562 33.3095 16.1646 35.7732C17.1001 38.0586 18.0808 40.3537 19.0988 42.608C21.4473 47.8087 23.9054 52.9469 26.5395 58.0784C22.0496 55.9162 19.0489 53.0913 16.8039 49.9599C13.2966 45.0672 12.1657 39.686 12.2142 35.4054C12.2524 32.0271 12.9413 29.3187 13.3223 28.2023ZM36.6517 43.2608L44.1187 59.3402C42.1537 60.0001 40.0553 60.2798 37.9174 60.3347C37.5774 60.3435 37.2387 60.3454 36.897 60.3436C34.0399 60.3277 31.6059 59.9465 29.3773 59.1824L36.6517 43.2608Z" fill="black"/>
<path d="M34.9932 6.21045C19.0949 6.21045 6.18933 19.1214 6.18933 35.0262C6.18933 50.9309 19.0949 63.8375 34.9932 63.8375C50.8915 63.8375 63.7927 50.931 63.7927 35.0262C63.7928 19.1213 50.8915 6.21045 34.9932 6.21045ZM34.7655 10.2018C37.2219 10.1839 39.6778 10.5214 42.0311 11.2182L38.3742 19.2931L34.7436 27.2056L31.1743 19.2535L27.5042 11.3278C29.8512 10.5939 32.309 10.2198 34.7655 10.2018ZM47.3127 13.4834C49.7637 14.9103 52.3381 16.842 54.8805 20.2217C51.2039 28.9714 47.21 38.3468 43.4851 47.1272L38.5625 35.8542H30.8503L25.8008 46.9345C21.9232 38.2281 18.1788 29.5496 14.7863 20.638C17.1755 17.2605 19.5989 15.4342 22.0299 13.8207C24.9356 20.4794 27.8438 27.1363 30.7495 33.7949H38.5493C41.4751 27.0704 44.3855 20.1915 47.3127 13.4834ZM58.4585 26.9998C58.8289 28.1496 59.4697 30.2625 59.7109 33.5453C59.8296 35.1604 59.7668 37.3273 59.3824 39.4294C58.7323 42.9852 57.236 46.6287 54.8672 49.7912C54.375 50.4484 53.8416 51.0839 53.2686 51.7058C51.1016 54.059 48.3046 56.1987 44.8906 57.7212C45.9346 55.8619 46.89 53.9718 47.7505 52.0913C48.9618 49.4439 50.1768 46.7997 51.2977 44.1217C51.5663 43.4804 51.8652 42.8507 52.1518 42.2158C53.17 39.9616 54.1376 37.636 55.0731 35.3504C56.0815 32.8868 57.5569 29.5244 58.4585 26.9998ZM11.322 27.6131C12.2237 30.1379 13.1559 32.7204 14.1642 35.184C15.0997 37.4695 16.0805 39.7646 17.0985 42.0188C19.447 47.2194 21.9052 52.3577 24.5393 57.4892C20.0494 55.327 17.0485 52.5021 14.8037 49.3706C11.2963 44.4779 10.1655 39.0969 10.214 34.8159C10.2523 31.438 10.9411 28.7294 11.322 27.6131ZM34.6517 42.6716L42.1187 58.7508C40.1536 59.4107 38.0553 59.6904 35.9174 59.7454C35.5774 59.7541 35.2385 59.756 34.897 59.7541C32.0399 59.7382 29.6058 59.3572 27.3774 58.5931L34.6517 42.6716Z" fill="url(#paint2_linear)" stroke="black" stroke-width="0.693659" stroke-miterlimit="18.2"/>
</g>
<defs>
<linearGradient id="paint0_linear" x1="25.3925" y1="21.8352" x2="64.3285" y2="75.1783" gradientUnits="userSpaceOnUse">
<stop stop-color="#1077B9"/>
<stop offset="1" stop-color="#042A54"/>
</linearGradient>
<radialGradient id="paint1_radial" cx="0" cy="0" r="1" gradientUnits="userSpaceOnUse" gradientTransform="translate(27.4057 17.3635) scale(87.5288 87.5993)">
<stop stop-color="#209BD3"/>
<stop offset="0.546" stop-color="#136194"/>
<stop offset="1" stop-color="#0A3B6C"/>
</radialGradient>
<linearGradient id="paint2_linear" x1="19.1102" y1="12.3959" x2="84.0642" y2="104.799" gradientUnits="userSpaceOnUse">
<stop stop-color="white"/>
<stop offset="0.5" stop-color="white"/>
<stop offset="1" stop-color="#989B9E"/>
</linearGradient>
<clipPath id="clip0">
<rect width="69.972" height="70" fill="white"/>
</clipPath>
</defs>
</svg>
