<svg width="32" height="32" viewBox="0 0 32 32" fill="none" xmlns="http://www.w3.org/2000/svg">
<path fill-rule="evenodd" clip-rule="evenodd" d="M16.5299 31.4359L17.0271 30.9388C17.3565 30.6093 17.3565 30.0751 17.0271 29.7456L4.4767 17.1952L30.9063 17.1952C31.3722 17.1952 31.75 16.8174 31.75 16.3514V15.6483C31.75 15.1824 31.3722 14.8046 30.9063 14.8046L4.4767 14.8046L17.0271 2.25421C17.3565 1.92473 17.3565 1.39049 17.0271 1.06094L16.5299 0.563829C16.2004 0.234344 15.6662 0.234344 15.3367 0.563829L0.497158 15.4033C0.167673 15.7328 0.167673 16.267 0.497158 16.5966L15.3367 31.4359C15.6662 31.7655 16.2004 31.7655 16.5299 31.4359Z" fill="#3E4756"/>
</svg>
