<svg width="32" height="32" viewBox="0 0 32 32" fill="none" xmlns="http://www.w3.org/2000/svg">
<path fill-rule="evenodd" clip-rule="evenodd" d="M15.4701 0.564061L14.9729 1.06117C14.6435 1.39065 14.6435 1.92489 14.9729 2.25444L27.5233 14.8048H1.09375C0.627789 14.8048 0.25 15.1826 0.25 15.6486V16.3517C0.25 16.8176 0.627789 17.1954 1.09375 17.1954H27.5233L14.9729 29.7458C14.6435 30.0753 14.6435 30.6095 14.9729 30.9391L15.4701 31.4362C15.7996 31.7657 16.3338 31.7657 16.6633 31.4362L31.5028 16.5967C31.8323 16.2672 31.8323 15.733 31.5028 15.4034L16.6633 0.564061C16.3338 0.234506 15.7996 0.234506 15.4701 0.564061Z" fill="#3E4756"/>
</svg>
