<svg width="70" height="35" viewBox="0 0 70 35" fill="none" xmlns="http://www.w3.org/2000/svg">
<g clip-path="url(#clip0)">
<path d="M6.63811 6.54098C6.95392 5.83051 7.22539 5.25346 9.21437 5.25346H20.6949C21.3277 5.25346 21.9601 4.94258 21.9601 4.05536V0.905125C21.9601 0.54793 22.3221 0.058918 23.271 0.058918H47.0462C47.7236 0.058918 48.267 0.414501 48.267 1.25794V3.74448C48.267 4.41002 48.5828 5.12026 49.5775 5.12026H68.6512C69.3288 5.12026 70.2328 5.29725 69.8267 6.14161C69.4189 6.98413 63.2274 19.3219 62.8072 20.1464C62.646 20.4624 62.5209 20.8834 61.2671 20.8834H49.542C48.9862 20.8834 48.0732 20.8834 48.0732 21.9391V24.8755C48.0732 25.2979 47.7513 25.9314 46.7304 25.9314H23.2069C22.4725 25.9314 21.9357 25.5606 21.9357 24.8402V22.2553C21.9357 21.6925 21.6309 20.8668 20.7719 20.8668H1.0257C0.398531 20.8668 -0.192037 20.3916 0.184079 19.4781C0.560194 18.5628 6.63787 6.54098 6.63787 6.54098" fill="#C7D6EE"/>
<path d="M1.69348 18.1054L2.24228 18.1072L7.63742 7.56394L7.08838 7.56233L1.69348 18.1054Z" fill="url(#paint0_linear)"/>
<path d="M20.8186 19.5943H2.35067C1.70637 19.5943 1.48065 19.305 1.73124 18.813C3.12965 16.0815 7.72844 7.09794 7.8474 6.85942C7.98724 6.57897 8.32605 6.23606 8.95111 6.23606H21.3439C22.6297 6.23606 22.8486 5.68414 22.8486 4.68721V1.71811C22.8486 1.31874 23.1184 1.05327 23.5926 1.05327H46.2905C46.9005 1.05327 47.1704 1.25122 47.1704 1.65059V3.844C47.1704 4.70819 47.0038 6.10355 48.9653 6.10355H67.7211C68.5634 6.10355 68.7821 6.66124 68.3363 7.54455C66.6765 10.8331 62.5925 18.6303 62.4653 18.8948C62.3046 19.2311 61.8051 19.527 61.0071 19.527H48.6959C47.68 19.527 46.6657 20.1916 46.6657 21.1892V23.723C46.6657 24.1843 46.3836 24.5111 45.8815 24.5111H23.8573C23.1759 24.5111 22.916 24.1322 22.916 23.6269V21.3215C22.916 20.5246 22.3747 19.5943 20.8186 19.5943Z" fill="#E9CF98"/>
<path d="M45.447 18.9997L48.0338 21.6475C48.0338 21.6475 48.2185 21.0668 48.92 20.923L46.023 18.2689C46.023 18.2689 45.5577 18.5275 45.447 18.9994V18.9997ZM20.8787 20.8859C20.8787 20.8859 21.9134 20.9228 21.9134 22.2651L24.3146 18.7812L23.6497 18.3095L20.8787 20.8859ZM46.4017 7.69363L49.1293 5.08241C49.1293 5.08241 48.7595 5.03794 48.3888 4.4473L45.6842 7.14931L46.4017 7.69363ZM45.2222 2.35828L47.7422 0.247602C47.7422 0.247602 48.0197 0.405916 48.1352 0.656183L45.4998 3.03995L45.2222 2.35828ZM21.9781 1.01177C21.9781 0.574604 22.3916 0.0588646 23.0685 0.0588646L24.9803 2.38017C24.9803 2.38017 24.4078 2.38017 24.3181 2.58758C24.2271 2.79498 24.137 3.23882 24.137 3.23882L21.9781 1.01177ZM21.1529 5.1928C21.1529 5.1928 21.9699 5.06559 21.9699 4.20786L23.8651 6.39782L22.6572 7.25532L21.1529 5.1928Z" fill="white"/>
<path d="M35.1658 0.0588994L35.0788 1.05744H45.9993C46.3578 1.05744 46.5591 1.14593 46.6942 1.40979L47.9035 0.353873C47.9035 0.353873 47.5995 0.0588994 47.0462 0.0588994H35.1658Z" fill="url(#paint1_linear)"/>
<path d="M23.0682 0.0589149C22.777 0.0589149 22.4408 0.200411 22.2625 0.419568L23.0461 1.2554C23.0461 1.2554 23.2026 1.05745 23.8298 1.05745H35.0788L35.1658 0.0589149H23.0682Z" fill="url(#paint2_linear)"/>
<path d="M21.9781 1.01205V4.05535C21.9781 4.53307 21.8807 4.65015 21.8807 4.65015L22.7454 5.55258C22.7454 5.55258 22.869 5.24102 22.869 5.04952V2.03409C22.869 1.84374 22.8864 1.56628 22.8864 1.56628L22.0745 0.578804C22.0745 0.578804 21.9781 0.751412 21.9781 1.01205Z" fill="url(#paint3_linear)"/>
<path d="M47.188 1.47365C47.188 1.47365 47.1645 1.82762 47.1645 2.01797C47.1645 2.20832 47.188 4.77897 47.188 4.96979C47.188 5.16014 47.4702 5.51318 47.4702 5.51318L48.5047 4.61397C48.5047 4.61397 48.2593 4.53308 48.2593 4.05536V1.01206C48.2593 0.751418 48.0423 0.578811 48.0423 0.578811L47.188 1.47365Z" fill="url(#paint4_linear)"/>
<path d="M20.7601 5.25693C20.4358 5.25693 9.29526 5.2696 8.70164 5.2696C7.84031 5.2696 7.33374 5.64269 7.33374 5.64269L8.04233 6.57901C8.04233 6.57901 8.32577 6.23587 8.9513 6.23587H21.5222C21.96 6.23587 22.289 6.04137 22.289 6.04137L21.4675 5.07234C21.4675 5.07234 21.0642 5.25693 20.7601 5.25693Z" fill="url(#paint5_linear)"/>
<path d="M1.36055 18.8949L0.0759417 19.7798C0.0759417 19.7798 -0.0258917 20.1455 0.166037 20.4345C0.358436 20.7226 0.652197 20.7673 0.652197 20.7673L2.32418 19.5943C2.32418 19.5943 1.37791 19.5505 1.77163 18.8622C2.16534 18.1736 2.14399 17.9143 2.14399 17.9143C2.14399 17.9141 1.68458 17.9883 1.36055 18.8949Z" fill="url(#paint6_linear)"/>
<path d="M4.88795 10.2307C3.86354 12.3015 0.422897 18.9539 0.302531 19.1914C0.18193 19.4281 0.0610962 19.842 0.0610962 19.842L1.387 18.8949L7.59983 6.73822C7.59983 6.73822 5.91259 8.15872 4.88795 10.2307Z" fill="url(#paint7_linear)"/>
<path d="M2.35068 19.6229L0.646545 20.827C0.646545 20.827 20.0577 20.874 20.5481 20.874C21.0377 20.874 21.2435 20.9659 21.2435 20.9659L22.1177 19.9902C22.1177 19.9902 21.2827 19.6229 20.8188 19.6229H2.35068Z" fill="url(#paint8_linear)"/>
<path d="M21.7413 21.4996C21.7413 21.4996 21.9201 21.8524 21.9201 22.1338V24.6547C21.9201 25.0153 22.0632 25.3281 22.0632 25.3281L22.9161 24.3413V21.3215C22.9161 20.8396 22.6456 20.4342 22.6456 20.4342L21.7413 21.4996Z" fill="url(#paint9_linear)"/>
<path d="M46.6631 21.0097V24.0298L48.0016 25.1797C48.0016 25.1797 48.0347 24.8732 48.0347 24.5132V21.9912C48.0347 21.7101 48.1178 21.5331 48.1178 21.5331L46.9474 20.3838C46.9474 20.3838 46.6631 20.5269 46.6631 21.0097Z" fill="url(#paint10_linear)"/>
<path d="M45.6619 24.5335H35.1391V25.936H46.7832C47.179 25.936 47.6405 25.6774 47.7283 25.6117L46.4087 24.3828C46.4087 24.3828 46.3217 24.5335 45.6619 24.5335Z" fill="url(#paint11_linear)"/>
<path d="M22.4645 25.7611C22.4645 25.7611 22.7355 25.9498 23.4929 25.9498C24.2496 25.9498 35.1391 25.9362 35.1391 25.9362V24.5337H23.8998C23.6964 24.5337 23.5603 24.4966 23.5603 24.4966L22.4645 25.7611Z" fill="url(#paint12_linear)"/>
<path d="M25.4873 2.35165C24.8777 2.35165 24.2691 2.68441 24.2691 3.34925V6.60596C24.2691 7.26988 23.8627 7.53605 23.3892 7.53605H9.91427C9.36687 7.53605 8.94336 7.76027 8.70004 8.21265C8.50084 8.58436 5.13574 15.2086 4.04822 17.3495C3.81242 17.8138 4.01842 18.0961 4.62354 18.0961H23.4575C24.2691 18.0961 24.4047 18.8276 24.4047 19.5581V22.0889C24.4047 22.5551 24.8779 23.0867 25.4195 23.0867H34.8942V2.35165H25.4873Z" fill="url(#paint13_linear)"/>
<path d="M47.5502 19.9008L48.6352 20.9961C48.6352 20.9961 48.9059 20.8488 50.172 20.8488H61.7427C61.9832 20.8488 62.3147 20.7302 62.3147 20.7302L56.1983 19.5171C56.1983 19.5171 49.1171 19.5219 48.7858 19.5171C48.7734 19.5166 48.7609 19.5164 48.7485 19.5164C48.0305 19.5164 47.5502 19.9008 47.5502 19.9008Z" fill="url(#paint14_linear)"/>
<path d="M47.9578 5.90979C47.9578 5.90979 48.4867 6.08331 48.9184 6.08331H67.1369C67.6913 6.08331 68.0148 6.12387 68.0148 6.12387L69.4872 5.26199C69.4872 5.26199 69.0146 5.12948 68.5421 5.12948H49.6216C49.1488 5.12948 48.9517 5.02094 48.9517 5.02094L47.9578 5.90979Z" fill="url(#paint15_linear)"/>
<path d="M68.5517 6.58982C68.5517 6.58982 68.635 7.0438 68.4776 7.35237C68.3206 7.66071 62.814 18.2975 62.5653 18.7861C62.3161 19.2744 61.7542 19.4544 61.7542 19.4544L62.3818 20.6868C62.3818 20.6868 62.604 20.5209 62.7354 20.3534C62.8661 20.1865 69.6416 6.64536 69.8511 6.1704C70.0599 5.69499 69.8762 5.52307 69.8762 5.52307L68.5517 6.58982Z" fill="url(#paint16_linear)"/>
<path d="M61.1701 19.5459C60.447 19.5459 56.379 19.5763 56.379 19.5763L62.1645 20.7302C62.1645 20.7302 62.5263 20.5834 62.7072 20.2861C62.8884 19.9902 62.7065 19.9017 62.496 20.0792C62.2856 20.2577 61.924 19.9619 62.1042 19.7544C62.2856 19.5461 62.4658 18.8951 62.4658 18.8951C62.4655 18.8949 61.8937 19.5459 61.1701 19.5459Z" fill="url(#paint17_linear)"/>
<path d="M7.34949 18.6303C3.56065 18.8787 2.35065 19.5823 2.35065 19.5823H20.4436C22.5011 19.5823 22.2662 19.8586 22.2547 19.8711L23.7278 18.3411C23.7278 18.3411 20.1491 18.3411 17.8756 18.3001C17.5865 18.295 17.2622 18.2925 16.9082 18.2925C14.4781 18.2925 10.6569 18.4142 7.34949 18.6303ZM22.2543 19.8715L22.2547 19.8711L22.2543 19.8715Z" fill="url(#paint18_linear)"/>
<path d="M50.0247 18.3001C48.4151 18.3411 45.8806 18.3411 45.8806 18.3411L47.5697 19.9033C47.5697 19.9033 47.7436 19.5376 49.234 19.5376C50.7253 19.5376 61.4719 19.5014 61.4719 19.5014C61.4719 19.5014 61.6533 18.9244 58.4888 18.7027C55.9961 18.5278 52.2344 18.2959 50.416 18.2959C50.2856 18.2958 50.1551 18.2972 50.0247 18.3001Z" fill="url(#paint19_linear)"/>
<path d="M46.1964 7.69942C46.1964 7.69942 48.7316 7.69942 50.3417 7.74067C51.9517 7.78192 61.7108 7.34729 64.395 7.09887C67.0789 6.85091 67.9351 6.14758 67.9351 6.14758C67.9351 6.14758 50.8717 6.23699 49.3808 6.23699C47.8909 6.23699 48.0988 5.94686 48.0988 5.94686L46.1964 7.69942Z" fill="url(#paint20_linear)"/>
<path d="M22.7355 20.479C22.7355 20.479 22.9164 21.0555 22.9164 21.4996V23.4971C22.9164 24.0297 23.0976 24.2966 23.0976 24.2966L24.6342 22.7867C24.6342 22.7867 24.4047 22.2543 24.4047 21.8547V19.6026C24.4047 19.0817 24.2724 18.6582 24.2724 18.6582L22.7355 20.479Z" fill="url(#paint21_linear)"/>
<path d="M45.2839 19.5899C45.2839 20.1107 45.2483 21.5045 45.2483 21.9045C45.2483 22.303 45.1549 22.7867 45.1549 22.7867L46.6913 24.2966C46.6913 24.2966 46.8726 24.0295 46.8726 23.4971V21.4996C46.8726 21.0555 47.0533 20.479 47.0533 20.479L45.4078 18.6162C45.328 18.9349 45.2864 19.2617 45.2839 19.5899Z" fill="url(#paint22_linear)"/>
<path d="M23.5947 24.4736L34.8038 24.5621L34.8491 24.5612V23.0867L25.086 23.0522L23.5947 24.4736Z" fill="url(#paint23_linear)"/>
<path d="M34.8941 23.0867H34.8491V24.5612L46.3747 24.4298L44.5218 23.0522L34.8941 23.0867Z" fill="url(#paint24_linear)"/>
<path d="M23.7461 1.04914C23.4295 1.04914 23.1367 1.21668 23.1367 1.21668L24.6224 2.65237C24.6224 2.65237 24.7688 2.34058 25.8158 2.34058H34.8941V1.04914H23.7461Z" fill="url(#paint25_linear)"/>
<path d="M34.8942 1.04915V2.34059H43.9726C45.0195 2.34059 45.2363 2.78812 45.2363 2.78812L46.7215 1.35311C46.7215 1.35311 46.3592 1.04915 46.0427 1.04915H34.8942Z" fill="url(#paint26_linear)"/>
<path d="M22.8535 2.30346V4.91052C22.8535 5.21979 22.7153 5.5862 22.7153 5.5862L24.1703 7.2081C24.1703 7.2081 24.2686 7.07329 24.2686 6.39784C24.2686 5.72194 24.3273 3.07708 24.3273 3.07708L22.8728 1.47454C22.8728 1.47454 22.8535 1.89833 22.8535 2.30346Z" fill="url(#paint27_linear)"/>
<path d="M45.2971 3.10819V6.34968C45.2971 7.02536 45.6187 7.2081 45.6187 7.2081L47.3968 5.44886C47.3968 5.44886 47.165 5.08083 47.165 4.77249C47.165 4.46322 47.15 2.57838 47.15 2.17302C47.15 1.76766 47.168 1.39273 47.168 1.39273L45.2971 3.10819Z" fill="url(#paint28_linear)"/>
<path d="M21.6508 6.27203H9.17637C8.8148 6.27203 8.22681 6.40523 8.04614 6.58314L9.17637 7.73746C9.17637 7.73746 9.49242 7.51576 10.2611 7.51576H23.2327C23.5948 7.51576 23.9559 7.38187 23.9559 7.38187L22.5101 5.91737C22.5101 5.91737 22.148 6.27203 21.6508 6.27203Z" fill="url(#paint29_linear)"/>
<path d="M60.5043 18.1452C60.5043 18.1452 61.2028 17.8871 61.4212 18.702C61.4212 18.702 61.5958 18.9599 62.0758 18.2731C62.5559 17.5873 67.097 8.41337 67.0519 8.2834C67.008 8.15527 66.0913 7.98336 66.0913 7.98336L60.5043 18.1452Z" fill="url(#paint30_linear)"/>
<path d="M66.223 8.07025C66.4419 8.19838 66.6599 8.37029 66.3544 9.01301C66.0491 9.65504 62.5566 16.3443 61.8152 17.6299C61.0731 18.9159 61.727 19.4305 61.727 19.4305C61.727 19.4305 62.2952 19.1726 62.4658 18.8947C62.638 18.6158 67.9701 8.24101 68.3373 7.54436C68.7042 6.84748 68.4496 6.56864 68.4496 6.56864L66.223 8.07025Z" fill="url(#paint31_linear)"/>
<path d="M34.8942 2.35165V23.0867H44.2292C44.7701 23.0867 45.244 22.8874 45.244 22.288V19.1956C45.244 18.5976 45.6495 18.1335 46.1237 18.1335H60.206C60.7002 18.1335 61.1441 17.8493 61.4015 17.382C62.5521 15.2923 65.7213 9.23215 65.9611 8.7436C66.2539 8.1472 66.0728 7.80176 65.3942 7.80176H46.7323C45.9205 7.80176 45.3107 7.20421 45.3107 6.47299V3.08332C45.3107 2.61804 45.0401 2.35187 44.4315 2.35187H34.8942V2.35165Z" fill="url(#paint32_linear)"/>
<path d="M2.19812 19.0052L4.00479 17.9293C4.00479 17.9293 3.79784 17.8408 4.12304 17.2013C4.44871 16.5618 7.49916 10.4531 7.49916 10.4531L6.8185 10.3083L2.19812 19.0052Z" fill="url(#paint33_linear)"/>
<path d="M2.03462 18.2144C1.58248 19.0135 1.67352 19.3237 1.67352 19.3237L2.75799 18.6135C2.75799 18.6135 7.594 9.42435 8.09118 8.35852C8.5886 7.29339 7.8474 6.85945 7.8474 6.85945C7.8474 6.85945 2.48675 17.4154 2.03462 18.2144Z" fill="url(#paint34_linear)"/>
<path d="M2.76635 19.62C2.69468 19.6672 2.03371 19.7474 1.90452 19.62C1.77516 19.494 1.55908 19.3952 1.73163 19.2536C1.9047 19.1119 4.03043 17.8708 4.03043 17.8708C4.03043 17.8708 3.77224 18.0117 5.95655 18.0117H23.4291C23.889 18.0117 24.3197 18.3217 24.3776 18.5194C24.4351 18.7174 24.3199 18.8017 24.1764 18.7741C24.0332 18.7454 23.6591 18.6325 23.5729 18.4909C23.4868 18.3502 23.688 18.2373 22.4232 18.2373C21.1588 18.2373 11.5029 18.3789 9.31928 18.576C7.13497 18.7741 4.26031 18.6327 2.76635 19.6201V19.62ZM67.3036 6.18423C67.375 6.13787 68.0369 6.05788 68.1659 6.18423C68.2951 6.3113 68.511 6.41004 68.3385 6.55144C68.1659 6.69231 66.0395 7.93426 66.0395 7.93426C66.0395 7.93426 66.2973 7.7934 64.1135 7.7934H46.6405C46.1807 7.7934 45.7498 7.48353 45.6926 7.2855C45.6349 7.0873 45.7496 7.00235 45.8926 7.03102C46.0375 7.05969 46.4106 7.1726 46.4971 7.31311C46.583 7.45486 46.3816 7.56688 47.6465 7.56688C48.9115 7.56688 58.5661 7.42637 60.7513 7.22887C62.9348 7.03102 65.8098 7.1726 67.3034 6.18423H67.3036ZM8.40772 7.81711C8.40772 7.61731 8.52063 7.2402 8.43055 7.12977C8.33994 7.01828 8.61106 6.8852 8.7921 6.99563C8.97296 7.10694 9.3568 7.19543 9.40193 7.28462C9.44723 7.3731 9.37945 7.59466 9.13099 7.68386C8.88217 7.77234 8.65618 7.97231 8.27217 8.79291C7.88779 9.6151 5.69552 13.7876 5.69552 13.7876C5.69552 13.7876 6.01229 13.1221 5.87656 13.0992C5.741 13.0773 5.42494 13.6324 5.42494 13.6324L8.40772 7.81729V7.81711ZM23.5184 7.42442C23.3314 7.443 23.2792 7.24179 23.4388 7.2156C23.5991 7.18923 23.8115 7.17667 23.9977 6.45712C24.1845 5.73757 24.0515 3.5545 24.0246 3.16251C23.9977 2.77018 23.8117 2.2998 24.0784 2.0908C24.3442 1.88109 24.5307 2.32617 25.223 2.32617C25.9149 2.32617 27.4861 2.27378 27.4861 2.27378C27.4861 2.27378 25.2763 2.42969 24.903 2.4826C24.5305 2.53516 24.2109 2.82238 24.2638 3.3455C24.3176 3.86861 24.1845 6.56241 24.0784 6.84981C23.9715 7.1372 23.7848 7.39841 23.5184 7.4246V7.42442ZM38.4271 2.28989C38.1338 2.30316 44.041 2.35802 44.4132 2.35802C44.7859 2.35802 45.2118 2.46916 45.292 2.83477C45.3718 3.20145 45.3152 4.40146 45.3152 4.40146C45.3152 4.40146 45.4987 2.86114 45.7652 2.57374C46.0314 2.28529 45.9515 1.86764 45.6056 1.94515C45.2592 2.02444 42.518 2.10867 38.4271 2.28989ZM46.3152 18.3208C46.1294 18.2938 45.917 18.2688 45.8632 18.4252C45.81 18.581 46.1021 18.6856 45.81 18.8415C45.5185 18.9983 45.301 19.0945 45.301 18.9638C45.301 18.8332 45.4516 18.1632 46.0096 18.1632C46.5676 18.1632 60.3358 18.1373 60.5496 18.1373C60.7612 18.1373 61.0272 18.1632 61.133 18.3725C61.2392 18.5813 61.372 19.1027 61.4521 19.2596C61.5312 19.4161 61.399 19.4161 61.1592 19.1027C60.9203 18.7894 60.3101 18.6596 59.8325 18.6856C59.354 18.7116 46.3152 18.3208 46.3152 18.3208ZM61.5047 18.764C61.5047 18.764 61.3723 18.4775 61.2923 18.2938C61.2127 18.1118 60.9738 18.0343 60.9738 18.0343C60.9738 18.0343 61.239 17.7202 61.6105 17.0428C61.9828 16.3653 63.7355 13.13 63.9212 12.6865C63.9212 12.6865 63.5228 13.8874 64.293 12.8954C64.293 12.8954 61.7968 17.5374 61.6372 17.8508C61.4783 18.1642 61.5045 18.764 61.5045 18.764H61.5047ZM24.57 22.4148C24.57 22.4148 24.6017 22.79 24.3799 22.9457C24.158 23.1016 24.0624 23.3821 24.253 23.5072C24.4434 23.6318 24.5703 23.5695 24.6972 23.3821C24.8243 23.1954 25.2692 23.0391 25.5546 23.1018C25.555 23.1016 24.57 23.2253 24.57 22.4148ZM38.2561 23.083C38.2561 23.083 43.615 23.3603 43.9325 23.3748L44.4721 23.3991C44.4721 23.3991 43.9035 23.3106 44.0716 23.1312L38.2559 23.083H38.2561ZM44.6075 23.0393C44.6075 23.0393 44.4491 23.2887 44.7027 23.4127C44.9573 23.5373 45.2116 23.6619 45.3702 23.475C45.5286 23.2881 45.2433 22.7893 45.2746 22.4463C45.2746 22.4461 45.4017 22.9769 44.6075 23.0391" fill="white"/>
<path d="M51.1437 23.4907H50.847V23.9847H51.1437C51.2949 23.9847 51.3396 23.9257 51.3396 23.8288V23.646C51.3396 23.5212 51.2805 23.4907 51.1437 23.4907ZM51.1437 24.1446H50.847V24.551H50.6665V23.3281H51.1437C51.4142 23.3281 51.5202 23.4463 51.5202 23.6461V23.8289C51.5202 23.9615 51.4734 24.0507 51.3396 24.1096L51.6745 24.551H51.4609L51.1437 24.1446ZM51.0882 24.9233C51.7254 24.9233 52.0601 24.4942 52.0601 23.9677C52.0601 23.441 51.7256 23.0055 51.0882 23.0055C50.4502 23.0055 50.1078 23.441 50.1078 23.9677C50.1078 24.4942 50.45 24.9233 51.0882 24.9233ZM51.0882 22.8439C51.7943 22.8439 52.2257 23.3455 52.2257 23.9656C52.2257 24.577 51.7945 25.0859 51.0882 25.0859C50.3777 25.0859 49.9427 24.577 49.9427 23.9656C49.9427 23.3455 50.3777 22.8439 51.0882 22.8439ZM14.7615 30.9046H12.7898V28.4398H10.8868V34.5675H12.7898V31.9254H14.7615V34.5675H16.6664V28.4395H14.7615V30.9046ZM49.7689 33.5473V28.4393H47.8654V34.567H52.4931V33.5473H49.7689ZM60.5905 28.4393V29.4616H62.3228V34.5675H64.2252V29.4616H65.9588V28.4395H60.5905V28.4393ZM4.02032 29.7152C4.02032 28.9495 4.49141 28.4393 5.19787 28.4393H9.01505V29.4604H6.27843C6.06571 29.4604 5.92573 29.6152 5.92573 29.8442V33.1627C5.92573 33.3931 6.06554 33.5475 6.27843 33.5475H9.01505V34.5671H5.19787C4.49141 34.5671 4.02032 34.0559 4.02032 33.291V29.7152ZM37.1288 32.0813L38.7743 34.5671H36.7508L35.294 32.0395V31.2407H36.0805C36.2923 31.2407 36.4333 31.0855 36.4333 30.8568V29.8437C36.4333 29.6149 36.2923 29.4611 36.0805 29.4611H34.7488V34.5671H32.8444V28.4395H37.1603C37.8687 28.4395 38.3375 28.9495 38.3375 29.7154L38.3393 30.9536C38.3394 31.6286 37.9248 32.0813 37.2996 32.0813H37.129H37.1288ZM43.7278 33.5473C43.9383 33.5473 44.0799 33.3933 44.0799 33.1638V29.8439C44.0799 29.6154 43.9383 29.4604 43.7278 29.4604H42.4C42.1883 29.4604 42.046 29.6154 42.046 29.8439V33.1638C42.046 33.3933 42.1883 33.5473 42.4 33.5473H43.7278ZM40.1426 29.7152C40.1426 28.9493 40.6119 28.4393 41.3187 28.4393H44.8069C45.5126 28.4393 45.9848 28.9493 45.9848 29.7152V33.2912C45.9848 34.0561 45.5126 34.5671 44.8069 34.5671H41.3187C40.6119 34.5671 40.1426 34.0561 40.1426 33.2912V29.7152ZM25.137 28.4393H27.1786L28.3971 33.1767C28.4002 33.1965 28.4106 33.2145 28.4262 33.2272C28.4417 33.2398 28.4614 33.2463 28.4815 33.2454C28.5247 33.2454 28.5585 33.2197 28.5664 33.1767L29.751 28.4393H31.3489L29.873 33.6979C29.6942 34.2966 29.3714 34.5671 28.6937 34.5671H27.7433C27.3075 34.5671 26.9521 34.3463 26.7385 33.6934L25.137 28.4393ZM20.4944 33.3537C20.4944 33.4714 20.5647 33.5462 20.6717 33.5462H23.8003V34.5673H19.7671C19.061 34.5673 18.5902 34.0559 18.5902 33.2923V29.7158C18.5902 28.9498 19.061 28.4395 19.7671 28.4395H23.8003V29.4616H20.6715C20.5645 29.4616 20.494 29.5377 20.494 29.6531V30.9034H23.4409V31.9252H20.4944V33.3539V33.3537ZM55.7235 33.3537C55.7235 33.4714 55.7932 33.5462 55.8983 33.5462H59.0285V34.5673H54.9947C54.289 34.5673 53.8156 34.0559 53.8156 33.2923V29.7158C53.8156 28.9498 54.2888 28.4395 54.9947 28.4395H59.0284V29.4616H55.8983C55.7932 29.4613 55.7235 29.5374 55.7235 29.6531V30.9034H58.6682V31.9252H55.7235V33.3539V33.3537Z" fill="black"/>
</g>
<defs>
<linearGradient id="paint0_linear" x1="7.28186" y1="7.73019" x2="7.24521" y2="21.5468" gradientUnits="userSpaceOnUse">
<stop stop-color="#C7D6EE"/>
<stop offset="0.185" stop-color="#91AFC8"/>
<stop offset="1" stop-color="#002334"/>
</linearGradient>
<linearGradient id="paint1_linear" x1="38.0357" y1="-2.75067" x2="46.5235" y2="5.89117" gradientUnits="userSpaceOnUse">
<stop stop-color="#E1E8F5"/>
<stop offset="0.899" stop-color="#92A5C1"/>
<stop offset="0.955" stop-color="#476886"/>
<stop offset="1" stop-color="#E1E8F5"/>
</linearGradient>
<linearGradient id="paint2_linear" x1="25.5843" y1="3.73963" x2="34.2672" y2="-5.10094" gradientUnits="userSpaceOnUse">
<stop stop-color="#E1E8F5"/>
<stop offset="0.039" stop-color="#476886"/>
<stop offset="0.09" stop-color="#92A5C1"/>
<stop offset="1" stop-color="#E1E8F5"/>
</linearGradient>
<linearGradient id="paint3_linear" x1="21.3034" y1="4.06781" x2="24.1341" y2="1.38025" gradientUnits="userSpaceOnUse">
<stop stop-color="#E1E8F5"/>
<stop offset="0.157" stop-color="#C7D6EE"/>
<stop offset="1" stop-color="#E1E8F5"/>
</linearGradient>
<linearGradient id="paint4_linear" x1="48.9511" y1="4.15065" x2="45.9539" y2="1.30496" gradientUnits="userSpaceOnUse">
<stop stop-color="#E1E8F5"/>
<stop offset="0.157" stop-color="#C7D6EE"/>
<stop offset="1" stop-color="#E1E8F5"/>
</linearGradient>
<linearGradient id="paint5_linear" x1="11.0694" y1="9.54376" x2="20.8079" y2="-0.371547" gradientUnits="userSpaceOnUse">
<stop stop-color="#476886"/>
<stop offset="0.129" stop-color="#92A5C1"/>
<stop offset="1" stop-color="#E1E8F5"/>
</linearGradient>
<linearGradient id="paint6_linear" x1="1.69287" y1="19.9275" x2="0.55749" y2="18.2765" gradientUnits="userSpaceOnUse">
<stop stop-color="#002334"/>
<stop offset="0.107" stop-color="white"/>
<stop offset="0.185" stop-color="#91AFC8"/>
<stop offset="0.242" stop-color="#002334"/>
<stop offset="0.534" stop-color="#5E738F"/>
<stop offset="0.758" stop-color="#002334"/>
<stop offset="1" stop-color="#002334"/>
</linearGradient>
<linearGradient id="paint7_linear" x1="7.95348" y1="11.2336" x2="-0.92884" y2="15.836" gradientUnits="userSpaceOnUse">
<stop stop-color="#91AFC8"/>
<stop offset="1" stop-color="#002334"/>
</linearGradient>
<linearGradient id="paint8_linear" x1="11.6087" y1="21.6925" x2="10.9461" y2="17.8668" gradientUnits="userSpaceOnUse">
<stop stop-color="#A5B9CC"/>
<stop offset="1" stop-color="#002334"/>
</linearGradient>
<linearGradient id="paint9_linear" x1="21.9673" y1="22.8804" x2="23.1074" y2="22.8804" gradientUnits="userSpaceOnUse">
<stop stop-color="#5E738F"/>
<stop offset="0.489" stop-color="#91AFC8"/>
<stop offset="1" stop-color="#91AFC8"/>
</linearGradient>
<linearGradient id="paint10_linear" x1="47.863" y1="22.7814" x2="46.4515" y2="22.7814" gradientUnits="userSpaceOnUse">
<stop stop-color="#5E738F"/>
<stop offset="0.32" stop-color="#91AFC8"/>
<stop offset="1" stop-color="#91AFC8"/>
</linearGradient>
<linearGradient id="paint11_linear" x1="39.8617" y1="27.7571" x2="43.6195" y2="21.1302" gradientUnits="userSpaceOnUse">
<stop stop-color="#A5B9CC"/>
<stop offset="1" stop-color="#002334"/>
</linearGradient>
<linearGradient id="paint12_linear" x1="27.5981" y1="23.0784" x2="31.3852" y2="29.7568" gradientUnits="userSpaceOnUse">
<stop stop-color="#002334"/>
<stop offset="0.775" stop-color="#A5B9CC"/>
<stop offset="1" stop-color="#A5B9CC"/>
</linearGradient>
<linearGradient id="paint13_linear" x1="15.9049" y1="4.12237" x2="32.8169" y2="33.9467" gradientUnits="userSpaceOnUse">
<stop stop-color="#FFEFCF"/>
<stop offset="0.461" stop-color="#FFE4A6"/>
<stop offset="1" stop-color="#BC956E"/>
</linearGradient>
<linearGradient id="paint14_linear" x1="52.4158" y1="23.0682" x2="57.1929" y2="17.6465" gradientUnits="userSpaceOnUse">
<stop stop-color="#5E738F"/>
<stop offset="0.607" stop-color="#91AFC8"/>
<stop offset="1" stop-color="#C7DFF4"/>
</linearGradient>
<linearGradient id="paint15_linear" x1="56.0969" y1="1.11737" x2="62.3948" y2="12.2237" gradientUnits="userSpaceOnUse">
<stop stop-color="#E1E8F5"/>
<stop offset="0.815" stop-color="#7F97B4"/>
<stop offset="0.904" stop-color="#476886"/>
<stop offset="1" stop-color="#002334"/>
</linearGradient>
<linearGradient id="paint16_linear" x1="61.8037" y1="20.0944" x2="72.057" y2="2.01278" gradientUnits="userSpaceOnUse">
<stop stop-color="#8CA0B5"/>
<stop offset="0.14" stop-color="#E1E8F5"/>
<stop offset="0.815" stop-color="#7F97B4"/>
<stop offset="0.904" stop-color="#476886"/>
<stop offset="1" stop-color="#002334"/>
</linearGradient>
<linearGradient id="paint17_linear" x1="59.0181" y1="20.3061" x2="62.7194" y2="18.1303" gradientUnits="userSpaceOnUse">
<stop stop-color="#002334"/>
<stop offset="0.815" stop-color="#A5B9CC"/>
<stop offset="0.888" stop-color="#002334"/>
<stop offset="1" stop-color="#002334"/>
</linearGradient>
<linearGradient id="paint18_linear" x1="8.21633" y1="14.2379" x2="20.2134" y2="26.4527" gradientUnits="userSpaceOnUse">
<stop stop-color="#D4BC7B"/>
<stop offset="0.332" stop-color="#7F5F39"/>
<stop offset="1" stop-color="#D4BC7B"/>
</linearGradient>
<linearGradient id="paint19_linear" x1="57.1182" y1="15.5384" x2="48.549" y2="24.2632" gradientUnits="userSpaceOnUse">
<stop stop-color="#D4BC7B"/>
<stop offset="0.332" stop-color="#7F5F39"/>
<stop offset="1" stop-color="#D4BC7B"/>
</linearGradient>
<linearGradient id="paint20_linear" x1="62.6183" y1="1.45875" x2="48.7675" y2="15.561" gradientUnits="userSpaceOnUse">
<stop stop-color="#D4BC7B"/>
<stop offset="0.332" stop-color="#7F5F39"/>
<stop offset="1" stop-color="#D4BC7B"/>
</linearGradient>
<linearGradient id="paint21_linear" x1="23.0843" y1="21.4768" x2="24.9266" y2="21.4768" gradientUnits="userSpaceOnUse">
<stop stop-color="#D3BD8B"/>
<stop offset="1" stop-color="#7F5F39"/>
</linearGradient>
<linearGradient id="paint22_linear" x1="46.73" y1="21.4572" x2="44.8873" y2="21.4572" gradientUnits="userSpaceOnUse">
<stop stop-color="#D3BD8B"/>
<stop offset="1" stop-color="#7F5F39"/>
</linearGradient>
<linearGradient id="paint23_linear" x1="28.2063" y1="22.0453" x2="31.5391" y2="27.9225" gradientUnits="userSpaceOnUse">
<stop stop-color="#7F5F39"/>
<stop offset="0.646" stop-color="#D3BD8B"/>
<stop offset="0.888" stop-color="#FFE4A6"/>
<stop offset="1" stop-color="#FFE4A6"/>
</linearGradient>
<linearGradient id="paint24_linear" x1="41.6064" y1="22.0507" x2="37.9656" y2="28.4712" gradientUnits="userSpaceOnUse">
<stop stop-color="#7F5F39"/>
<stop offset="0.455" stop-color="#D3BD8B"/>
<stop offset="0.888" stop-color="#FFE4A6"/>
<stop offset="1" stop-color="#FFE4A6"/>
</linearGradient>
<linearGradient id="paint25_linear" x1="26.3502" y1="4.37354" x2="34.1156" y2="-3.53279" gradientUnits="userSpaceOnUse">
<stop stop-color="#D4BC7B"/>
<stop offset="0.039" stop-color="#7F5F39"/>
<stop offset="0.107" stop-color="#D1AC75"/>
<stop offset="1" stop-color="#D4BC7B"/>
</linearGradient>
<linearGradient id="paint26_linear" x1="43.5183" y1="4.48093" x2="35.6173" y2="-3.56352" gradientUnits="userSpaceOnUse">
<stop stop-color="#D4BC7B"/>
<stop offset="0.039" stop-color="#7F5F39"/>
<stop offset="0.107" stop-color="#D1AC75"/>
<stop offset="1" stop-color="#D4BC7B"/>
</linearGradient>
<linearGradient id="paint27_linear" x1="22.4097" y1="5.34052" x2="25.3008" y2="2.59554" gradientUnits="userSpaceOnUse">
<stop stop-color="#FFE292"/>
<stop offset="0.157" stop-color="#D1AC75"/>
<stop offset="1" stop-color="#FFE292"/>
</linearGradient>
<linearGradient id="paint28_linear" x1="47.5177" y1="5.3175" x2="44.5038" y2="2.45592" gradientUnits="userSpaceOnUse">
<stop stop-color="#FFE292"/>
<stop offset="0.157" stop-color="#D1AC75"/>
<stop offset="1" stop-color="#FFE292"/>
</linearGradient>
<linearGradient id="paint29_linear" x1="12.3816" y1="10.5651" x2="21.3931" y2="1.39002" gradientUnits="userSpaceOnUse">
<stop stop-color="#7F5F39"/>
<stop offset="1" stop-color="#BD9B6A"/>
</linearGradient>
<linearGradient id="paint30_linear" x1="62.3299" y1="11.8183" x2="66.1638" y2="15.7219" gradientUnits="userSpaceOnUse">
<stop stop-color="#7F5F39"/>
<stop offset="1" stop-color="#D4BC7B"/>
</linearGradient>
<linearGradient id="paint31_linear" x1="61.3738" y1="19.1049" x2="69.7554" y2="2.66741" gradientUnits="userSpaceOnUse">
<stop stop-color="#A78A5E"/>
<stop offset="0.764" stop-color="#7F5F39"/>
<stop offset="0.916" stop-color="#674C2B"/>
<stop offset="1" stop-color="#674C2B"/>
</linearGradient>
<linearGradient id="paint32_linear" x1="55.8951" y1="21.9363" x2="31.8996" y2="-7.17965" gradientUnits="userSpaceOnUse">
<stop stop-color="#FFEFCF"/>
<stop offset="0.461" stop-color="#FFE4A6"/>
<stop offset="1" stop-color="#BC956E"/>
</linearGradient>
<linearGradient id="paint33_linear" x1="1.48661" y1="17.9964" x2="9.80737" y2="9.52457" gradientUnits="userSpaceOnUse">
<stop stop-color="#7F5F39"/>
<stop offset="1" stop-color="#E9CF98"/>
</linearGradient>
<linearGradient id="paint34_linear" x1="0.355555" y1="17.5985" x2="11.5495" y2="6.20132" gradientUnits="userSpaceOnUse">
<stop stop-color="#7F5F39"/>
<stop offset="1" stop-color="#E4CB90"/>
</linearGradient>
<clipPath id="clip0">
<rect width="70" height="34.612" fill="white"/>
</clipPath>
</defs>
</svg>
