<svg width="139" height="15" viewBox="0 0 139 15" fill="none" xmlns="http://www.w3.org/2000/svg">
<path d="M9.64 0.24C10.3333 0.24 10.9667 0.386666 11.54 0.68C12.1267 0.959999 12.5867 1.36 12.92 1.88C13.2667 2.4 13.44 2.98 13.44 3.62C13.44 5.31333 12.6733 6.38 11.14 6.82V6.9C12.8867 7.3 13.76 8.44667 13.76 10.34C13.76 11.06 13.58 11.7 13.22 12.26C12.8733 12.8067 12.3933 13.2333 11.78 13.54C11.1667 13.8467 10.4933 14 9.76 14H0.48V0.24H9.64ZM4.9 5.6H7.94C8.23333 5.6 8.47333 5.5 8.66 5.3C8.86 5.08667 8.96 4.82667 8.96 4.52V4.32C8.96 4.02667 8.86 3.78 8.66 3.58C8.46 3.36667 8.22 3.26 7.94 3.26H4.9V5.6ZM4.9 10.8H8.26C8.55333 10.8 8.79333 10.7 8.98 10.5C9.18 10.2867 9.28 10.0267 9.28 9.72V9.52C9.28 9.21333 9.18 8.96 8.98 8.76C8.79333 8.54667 8.55333 8.44 8.26 8.44H4.9V10.8ZM28.7064 4.46C28.7064 5.3 28.4797 6.06 28.0264 6.74C27.5731 7.42 26.9131 7.92 26.0464 8.24L29.1064 14H24.1464L21.7064 8.98H20.0664V14H15.6464V0.24H24.0664C25.0531 0.24 25.8931 0.433333 26.5864 0.819999C27.2931 1.19333 27.8197 1.70667 28.1664 2.36C28.5264 3 28.7064 3.7 28.7064 4.46ZM24.2064 4.64C24.2064 4.28 24.0864 3.98 23.8464 3.74C23.6064 3.5 23.3131 3.38 22.9664 3.38H20.0664V5.92H22.9664C23.3131 5.92 23.6064 5.8 23.8464 5.56C24.0864 5.30667 24.2064 5 24.2064 4.64ZM40.0328 14L39.4528 12.06H34.6328L34.0528 14H29.5328L34.5528 0.24H39.6928L44.7128 14H40.0328ZM35.5528 8.98H38.5328L37.0928 4.08H37.0128L35.5528 8.98ZM51.9392 0.24C56.7526 0.24 59.1592 2.53333 59.1592 7.12C59.1592 11.7067 56.7526 14 51.9392 14H45.9792V0.24H51.9392ZM50.3992 10.7H51.8592C53.7126 10.7 54.6392 9.70667 54.6392 7.72V6.52C54.6392 4.53333 53.7126 3.54 51.8592 3.54H50.3992V10.7ZM73.1858 -9.53674e-07C74.9458 -9.53674e-07 76.3924 0.359999 77.5258 1.08C78.6591 1.78667 79.2391 2.84 79.2658 4.24V4.48H75.1258V4.4C75.1258 4 74.9791 3.66667 74.6858 3.4C74.3924 3.13333 73.9458 3 73.3458 3C72.7591 3 72.3058 3.08667 71.9858 3.26C71.6791 3.43333 71.5258 3.64667 71.5258 3.9C71.5258 4.26 71.7391 4.52667 72.1658 4.7C72.5924 4.87333 73.2791 5.05333 74.2258 5.24C75.3324 5.46667 76.2391 5.70667 76.9458 5.96C77.6658 6.2 78.2924 6.6 78.8258 7.16C79.3591 7.72 79.6324 8.48 79.6458 9.44C79.6458 11.0667 79.0924 12.2733 77.9858 13.06C76.8924 13.8467 75.4258 14.24 73.5858 14.24C71.4391 14.24 69.7658 13.88 68.5658 13.16C67.3791 12.44 66.7858 11.1667 66.7858 9.34H70.9658C70.9658 10.0333 71.1458 10.5 71.5058 10.74C71.8658 10.9667 72.4258 11.08 73.1858 11.08C73.7458 11.08 74.2058 11.02 74.5658 10.9C74.9391 10.78 75.1258 10.5333 75.1258 10.16C75.1258 9.82667 74.9191 9.58 74.5058 9.42C74.1058 9.24667 73.4458 9.06667 72.5258 8.88C71.4058 8.64 70.4791 8.39333 69.7458 8.14C69.0124 7.87333 68.3724 7.44 67.8258 6.84C67.2791 6.24 67.0058 5.42667 67.0058 4.4C67.0058 2.89333 67.5858 1.78667 68.7458 1.08C69.9191 0.359999 71.3991 -9.53674e-07 73.1858 -9.53674e-07ZM89.3594 3.76V14H84.9394V3.76H80.4194V0.24H93.8594V3.76H89.3594ZM103.326 14L102.746 12.06H97.9258L97.3458 14H92.8258L97.8458 0.24H102.986L108.006 14H103.326ZM98.8458 8.98H101.826L100.386 4.08H100.306L98.8458 8.98ZM115.481 -9.53674e-07C117.521 -9.53674e-07 119.134 0.513333 120.321 1.54C121.507 2.55333 122.101 4.00667 122.101 5.9H117.881C117.881 5.1 117.667 4.46667 117.241 4C116.827 3.53333 116.234 3.3 115.461 3.3C114.567 3.3 113.907 3.58 113.481 4.14C113.067 4.7 112.861 5.48 112.861 6.48V7.76C112.861 8.74667 113.067 9.52667 113.481 10.1C113.907 10.66 114.554 10.94 115.421 10.94C116.274 10.94 116.921 10.72 117.361 10.28C117.801 9.84 118.021 9.22 118.021 8.42H122.101C122.101 10.3 121.521 11.74 120.361 12.74C119.214 13.74 117.587 14.24 115.481 14.24C113.134 14.24 111.354 13.64 110.141 12.44C108.941 11.24 108.341 9.46667 108.341 7.12C108.341 4.77333 108.941 3 110.141 1.8C111.354 0.599999 113.134 -9.53674e-07 115.481 -9.53674e-07ZM132.627 14H128.207V8.66L122.747 0.24H127.827L130.467 4.82H130.547L133.187 0.24H138.007L132.627 8.66V14Z" fill="#3E4756"/>
</svg>
