<svg width="36" height="36" viewBox="0 0 36 36" fill="none" xmlns="http://www.w3.org/2000/svg">
<path fill-rule="evenodd" clip-rule="evenodd" d="M12.5833 15.2916H23.4167C24.0152 15.2916 24.5 14.8068 24.5 14.2083V13.1249C24.5 12.5264 24.0152 12.0416 23.4167 12.0416H12.5833C11.9848 12.0416 11.5 12.5264 11.5 13.1249V14.2083C11.5 14.8068 11.9848 15.2916 12.5833 15.2916ZM11.5 20.7083C11.5 21.3068 11.9848 21.7916 12.5833 21.7916H23.4167C24.0152 21.7916 24.5 21.3068 24.5 20.7083V19.6249C24.5 19.0264 24.0152 18.5416 23.4167 18.5416H12.5833C11.9848 18.5416 11.5 19.0264 11.5 19.6249V20.7083ZM18 28.9098C16.8882 28.9098 15.7764 28.5671 14.8272 27.8813L0.666656 17.6519V32.0832C0.666656 33.8782 2.12171 35.3332 3.91666 35.3332H32.0833C33.8783 35.3332 35.3333 33.8782 35.3333 32.0832V17.6519L21.1728 27.8813C20.2235 28.5665 19.1118 28.9098 18 28.9098ZM34.0882 11.6998C33.4889 11.2299 32.9209 10.7878 32.0833 10.1554V7.16671C32.0833 5.37176 30.6283 3.91671 28.8333 3.91671H23.5825C23.3767 3.76775 23.1851 3.62828 22.9705 3.47255C21.8323 2.64176 19.5708 0.643015 18 0.666713C16.4292 0.643015 14.1684 2.64176 13.0295 3.47255C12.8149 3.62828 12.6233 3.76775 12.4174 3.91671H7.16666C5.37171 3.91671 3.91666 5.37176 3.91666 7.16671V10.1554C3.0791 10.7871 2.51103 11.2299 1.91181 11.6998C1.12592 12.3157 0.666792 13.2587 0.666656 14.2571V14.9782L7.16666 19.6738V7.16671H28.8333V19.6738L35.3333 14.9782V14.2571C35.3333 13.2591 34.8743 12.3159 34.0882 11.6998Z" fill="#FECE2F"/>
</svg>
