<svg width="26" height="36" viewBox="0 0 26 36" fill="none" xmlns="http://www.w3.org/2000/svg">
<path fill-rule="evenodd" clip-rule="evenodd" d="M11.664 34.6337C1.82609 20.3717 0 18.908 0 13.6665C0 6.48678 5.82028 0.666504 13 0.666504C20.1797 0.666504 26 6.48678 26 13.6665C26 18.908 24.1739 20.3717 14.336 34.6337C13.6904 35.5664 12.3095 35.5663 11.664 34.6337ZM13 19.0832C15.9916 19.0832 18.4167 16.6581 18.4167 13.6665C18.4167 10.6749 15.9916 8.24984 13 8.24984C10.0084 8.24984 7.58333 10.6749 7.58333 13.6665C7.58333 16.6581 10.0084 19.0832 13 19.0832Z" fill="#FECE2F"/>
</svg>
